<svg xmlns="http://www.w3.org/2000/svg" xmlns:xlink="http://www.w3.org/1999/xlink" contentStyleType="text/css" data-diagram-type="DESCRIPTION" height="777px" preserveAspectRatio="none" style="width:1728px;height:777px;background:#FFFFFF;" version="1.1" viewBox="0 0 1728 777" width="1728px" zoomAndPan="magnify"><defs/><g><!--entity courseListing--><g class="entity" data-entity="courseListing" data-source-line="2" data-uid="ent0002" id="entity_courseListing"><rect fill="#FFC0CB" height="46.2969" rx="2.5" ry="2.5" style="stroke:#181818;stroke-width:0.5;" width="250.6904" x="1220.41" y="360.89"/><rect fill="#FFC0CB" height="10" style="stroke:#181818;stroke-width:0.5;" width="15" x="1451.1004" y="365.89"/><rect fill="#FFC0CB" height="2" style="stroke:#181818;stroke-width:0.5;" width="4" x="1449.1004" y="367.89"/><rect fill="#FFC0CB" height="2" style="stroke:#181818;stroke-width:0.5;" width="4" x="1449.1004" y="371.89"/><text fill="#000000" font-family="sans-serif" font-size="14" lengthAdjust="spacing" textLength="210.6904" x="1235.41" y="393.8851">Zobrazen&#237;/Listov&#225;n&#237; p&#345;edm&#283;t&#367;</text></g><!--entity courseEditForms--><g class="entity" data-entity="courseEditForms" data-source-line="3" data-uid="ent0003" id="entity_courseEditForms"><rect fill="#FFC0CB" height="46.2969" rx="2.5" ry="2.5" style="stroke:#181818;stroke-width:0.5;" width="370.2783" x="906.62" y="7"/><rect fill="#FFC0CB" height="10" style="stroke:#181818;stroke-width:0.5;" width="15" x="1256.8983" y="12"/><rect fill="#FFC0CB" height="2" style="stroke:#181818;stroke-width:0.5;" width="4" x="1254.8983" y="14"/><rect fill="#FFC0CB" height="2" style="stroke:#181818;stroke-width:0.5;" width="4" x="1254.8983" y="18"/><text fill="#000000" font-family="sans-serif" font-size="14" lengthAdjust="spacing" textLength="330.2783" x="921.62" y="39.9951">Formul&#225;&#345;e pro tvorbu/editaci/maz&#225;n&#237; p&#345;edm&#283;t&#367;</text></g><!--entity courseProvider--><g class="entity" data-entity="courseProvider" data-source-line="5" data-uid="ent0004" id="entity_courseProvider"><rect fill="#F1F1F1" height="46.2969" rx="2.5" ry="2.5" style="stroke:#181818;stroke-width:0.5;" width="202.8115" x="1244.35" y="484.19"/><rect fill="#F1F1F1" height="10" style="stroke:#181818;stroke-width:0.5;" width="15" x="1427.1615" y="489.19"/><rect fill="#F1F1F1" height="2" style="stroke:#181818;stroke-width:0.5;" width="4" x="1425.1615" y="491.19"/><rect fill="#F1F1F1" height="2" style="stroke:#181818;stroke-width:0.5;" width="4" x="1425.1615" y="495.19"/><text fill="#000000" font-family="sans-serif" font-size="14" lengthAdjust="spacing" textLength="162.8115" x="1259.35" y="517.1851">Poskytovatel p&#345;edm&#283;t&#367;</text></g><!--entity courseManager--><g class="entity" data-entity="courseManager" data-source-line="7" data-uid="ent0005" id="entity_courseManager"><rect fill="#F1F1F1" height="46.2969" rx="2.5" ry="2.5" style="stroke:#181818;stroke-width:0.5;" width="162.1787" x="1010.67" y="130.3"/><rect fill="#F1F1F1" height="10" style="stroke:#181818;stroke-width:0.5;" width="15" x="1152.8487" y="135.3"/><rect fill="#F1F1F1" height="2" style="stroke:#181818;stroke-width:0.5;" width="4" x="1150.8487" y="137.3"/><rect fill="#F1F1F1" height="2" style="stroke:#181818;stroke-width:0.5;" width="4" x="1150.8487" y="141.3"/><text fill="#000000" font-family="sans-serif" font-size="14" lengthAdjust="spacing" textLength="122.1787" x="1025.67" y="163.2951">Spr&#225;va p&#345;edm&#283;t&#367;</text></g><!--entity courseRepository--><g class="entity" data-entity="courseRepository" data-source-line="9" data-uid="ent0006" id="entity_courseRepository"><rect fill="#808080" height="46.2969" rx="2.5" ry="2.5" style="stroke:#181818;stroke-width:0.5;" width="246.999" x="1351.26" y="607.49"/><rect fill="#808080" height="10" style="stroke:#181818;stroke-width:0.5;" width="15" x="1578.259" y="612.49"/><rect fill="#808080" height="2" style="stroke:#181818;stroke-width:0.5;" width="4" x="1576.259" y="614.49"/><rect fill="#808080" height="2" style="stroke:#181818;stroke-width:0.5;" width="4" x="1576.259" y="618.49"/><text fill="#000000" font-family="sans-serif" font-size="14" lengthAdjust="spacing" textLength="206.999" x="1366.26" y="640.4851">Ulo&#382;en&#237;/Historizace p&#345;edm&#283;t&#367;</text></g><!--entity scheduleListing--><g class="entity" data-entity="scheduleListing" data-source-line="16" data-uid="ent0011" id="entity_scheduleListing"><rect fill="#FFC0CB" height="46.2969" rx="2.5" ry="2.5" style="stroke:#181818;stroke-width:0.5;" width="168.0098" x="934.75" y="237.6"/><rect fill="#FFC0CB" height="10" style="stroke:#181818;stroke-width:0.5;" width="15" x="1082.7598" y="242.6"/><rect fill="#FFC0CB" height="2" style="stroke:#181818;stroke-width:0.5;" width="4" x="1080.7598" y="244.6"/><rect fill="#FFC0CB" height="2" style="stroke:#181818;stroke-width:0.5;" width="4" x="1080.7598" y="248.6"/><text fill="#000000" font-family="sans-serif" font-size="14" lengthAdjust="spacing" textLength="128.0098" x="949.75" y="270.5951">Zobrazen&#237; rozvrhu</text></g><!--entity scheduleProvider--><g class="entity" data-entity="scheduleProvider" data-source-line="18" data-uid="ent0012" id="entity_scheduleProvider"><rect fill="#F1F1F1" height="46.2969" rx="2.5" ry="2.5" style="stroke:#181818;stroke-width:0.5;" width="187.5127" x="922" y="360.89"/><rect fill="#F1F1F1" height="10" style="stroke:#181818;stroke-width:0.5;" width="15" x="1089.5127" y="365.89"/><rect fill="#F1F1F1" height="2" style="stroke:#181818;stroke-width:0.5;" width="4" x="1087.5127" y="367.89"/><rect fill="#F1F1F1" height="2" style="stroke:#181818;stroke-width:0.5;" width="4" x="1087.5127" y="371.89"/><text fill="#000000" font-family="sans-serif" font-size="14" lengthAdjust="spacing" textLength="147.5127" x="937" y="393.8851">Poskytovatel rozvrh&#367;</text></g><!--entity scheduleEditForms--><g class="entity" data-entity="scheduleEditForms" data-source-line="20" data-uid="ent0013" id="entity_scheduleEditForms"><rect fill="#FFC0CB" height="46.2969" rx="2.5" ry="2.5" style="stroke:#181818;stroke-width:0.5;" width="223.0664" x="316.23" y="237.6"/><rect fill="#FFC0CB" height="10" style="stroke:#181818;stroke-width:0.5;" width="15" x="519.2964" y="242.6"/><rect fill="#FFC0CB" height="2" style="stroke:#181818;stroke-width:0.5;" width="4" x="517.2964" y="244.6"/><rect fill="#FFC0CB" height="2" style="stroke:#181818;stroke-width:0.5;" width="4" x="517.2964" y="248.6"/><text fill="#000000" font-family="sans-serif" font-size="14" lengthAdjust="spacing" textLength="183.0664" x="331.23" y="270.5951">Formul&#225;&#345; pro tvorbu l&#237;stk&#367;</text></g><!--entity scheduleManager--><g class="entity" data-entity="scheduleManager" data-source-line="22" data-uid="ent0014" id="entity_scheduleManager"><rect fill="#F1F1F1" height="46.2969" rx="2.5" ry="2.5" style="stroke:#181818;stroke-width:0.5;" width="221.7061" x="322.91" y="360.89"/><rect fill="#F1F1F1" height="10" style="stroke:#181818;stroke-width:0.5;" width="15" x="524.6161" y="365.89"/><rect fill="#F1F1F1" height="2" style="stroke:#181818;stroke-width:0.5;" width="4" x="522.6161" y="367.89"/><rect fill="#F1F1F1" height="2" style="stroke:#181818;stroke-width:0.5;" width="4" x="522.6161" y="371.89"/><text fill="#000000" font-family="sans-serif" font-size="14" lengthAdjust="spacing" textLength="181.7061" x="337.91" y="393.8851">Spr&#225;va rozvrhov&#253;ch l&#237;stk&#367;</text></g><!--entity scheduleRepository--><g class="entity" data-entity="scheduleRepository" data-source-line="24" data-uid="ent0015" id="entity_scheduleRepository"><rect fill="#808080" height="46.2969" rx="2.5" ry="2.5" style="stroke:#181818;stroke-width:0.5;" width="306.5264" x="396.5" y="484.19"/><rect fill="#808080" height="10" style="stroke:#181818;stroke-width:0.5;" width="15" x="683.0264" y="489.19"/><rect fill="#808080" height="2" style="stroke:#181818;stroke-width:0.5;" width="4" x="681.0264" y="491.19"/><rect fill="#808080" height="2" style="stroke:#181818;stroke-width:0.5;" width="4" x="681.0264" y="495.19"/><text fill="#000000" font-family="sans-serif" font-size="14" lengthAdjust="spacing" textLength="266.5264" x="411.5" y="517.1851">Ulo&#382;en&#237;/Historizace rozvrhov&#253;ch l&#237;stk&#367;</text></g><!--entity scheduleNotifications--><g class="entity" data-entity="scheduleNotifications" data-source-line="26" data-uid="ent0016" id="entity_scheduleNotifications"><rect fill="#808080" height="46.2969" rx="2.5" ry="2.5" style="stroke:#181818;stroke-width:0.5;" width="307.5176" x="7" y="484.19"/><rect fill="#808080" height="10" style="stroke:#181818;stroke-width:0.5;" width="15" x="294.5176" y="489.19"/><rect fill="#808080" height="2" style="stroke:#181818;stroke-width:0.5;" width="4" x="292.5176" y="491.19"/><rect fill="#808080" height="2" style="stroke:#181818;stroke-width:0.5;" width="4" x="292.5176" y="495.19"/><text fill="#000000" font-family="sans-serif" font-size="14" lengthAdjust="spacing" textLength="267.5176" x="22" y="517.1851">Notifikace o zm&#283;n&#283; rozvrhov&#253;ch l&#237;stk&#367;</text></g><!--entity timeslotRepository--><g class="entity" data-entity="timeslotRepository" data-source-line="28" data-uid="ent0017" id="entity_timeslotRepository"><rect fill="#808080" height="46.2969" rx="2.5" ry="2.5" style="stroke:#181818;stroke-width:0.5;" width="271.8887" x="829.81" y="484.19"/><rect fill="#808080" height="10" style="stroke:#181818;stroke-width:0.5;" width="15" x="1081.6987" y="489.19"/><rect fill="#808080" height="2" style="stroke:#181818;stroke-width:0.5;" width="4" x="1079.6987" y="491.19"/><rect fill="#808080" height="2" style="stroke:#181818;stroke-width:0.5;" width="4" x="1079.6987" y="495.19"/><text fill="#000000" font-family="sans-serif" font-size="14" lengthAdjust="spacing" textLength="231.8887" x="844.81" y="517.1851">Adres&#225;&#345; m&#237;stnost&#237;/&#269;asov&#253;ch slot&#367;</text></g><!--entity notifications--><g class="entity" data-entity="notifications" data-source-line="41" data-uid="ent0027" id="entity_notifications"><path d="M93.9582,615.8956 C97.4269,610.6355 101.8603,611.1702 104.1984,616.9448 C107.0603,610.5469 113.122,610.3475 116.9684,615.8921 C119.8941,611.51 124.356,611.2175 127.4813,615.6542 C129.7999,609.9375 135.1037,607.3458 139.6313,613.3679 C143.0847,609.5151 147.2083,608.8935 149.6387,614.4554 C152.4277,607.688 157.7427,608.4381 161.5013,613.4815 C165.3824,606.8263 169.6643,607.8463 173.7521,613.272 C177.0657,607.856 181.4972,608.6163 184.6617,613.4309 C189.1843,608.0742 192.6696,609.0892 196.2154,614.4808 C200.3503,609.6466 203.9286,609.1547 207.0935,615.4306 C211.7717,609.6986 216.1466,610.1096 219.4627,616.7882 C222.7202,611.7963 226.1238,611.5063 230.0769,616.0106 C239.8096,617.7359 241.9438,623.3172 237.4229,631.7114 C241.7514,639.5918 240.357,644.8886 231.1158,647.2673 C228.957,654.3139 223.1738,653.6027 219.1315,649.2469 C216.2296,654.867 211.2269,654.8677 208.442,649.1367 C206.321,655.2946 201.6607,657.0779 196.5859,652.3554 C192.4313,657.4204 188.6247,658.3389 184.4075,652.4249 C182.1692,658.3411 177.2968,660.2644 172.795,654.718 C169.8174,659.2306 166.8537,660.2025 162.8439,655.8806 C158.4835,661.6148 153.2129,661.8778 149.9412,654.7854 C146.1111,660.3023 141.1992,659.9395 138.2165,653.924 C134.3025,657.7402 129.1426,657.2634 127.9515,651.1181 C123.9465,656.9565 118.6663,656.0289 116.4714,649.4453 C112.2579,654.6413 107.6112,654.6717 104.4374,648.3582 C100.2178,652.5543 96.6396,652.3184 93.2816,647.3136 C83.8683,647.0039 81.414,640.6424 84.6077,632.7988 C80.5562,623.1186 82.8194,617.1729 93.9582,615.8956" fill="#F1F1F1" style="stroke:#181818;stroke-width:0.5;"/><text fill="#000000" font-family="sans-serif" font-size="14" lengthAdjust="spacing" textLength="123.7031" x="98.91" y="635.4851">Notifika&#269;n&#237; slu&#382;ba</text></g><!--entity courseDB--><g class="entity" data-entity="courseDB" data-source-line="45" data-uid="ent0029" id="entity_courseDB"><path d="M1431.17,724.78 C1431.17,714.78 1474.7618,714.78 1474.7618,714.78 C1474.7618,714.78 1518.3536,714.78 1518.3536,724.78 L1518.3536,750.0769 C1518.3536,760.0769 1474.7618,760.0769 1474.7618,760.0769 C1474.7618,760.0769 1431.17,760.0769 1431.17,750.0769 L1431.17,724.78" fill="#F1F1F1" style="stroke:#181818;stroke-width:0.5;"/><path d="M1431.17,724.78 C1431.17,734.78 1474.7618,734.78 1474.7618,734.78 C1474.7618,734.78 1518.3536,734.78 1518.3536,724.78" fill="none" style="stroke:#181818;stroke-width:0.5;"/><text fill="#000000" font-family="sans-serif" font-size="14" lengthAdjust="spacing" textLength="67.1836" x="1441.17" y="751.7751">courseDB</text></g><!--entity scheduleDB--><g class="entity" data-entity="scheduleDB" data-source-line="46" data-uid="ent0030" id="entity_scheduleDB"><path d="M498.2,617.99 C498.2,607.99 549.7625,607.99 549.7625,607.99 C549.7625,607.99 601.325,607.99 601.325,617.99 L601.325,643.2869 C601.325,653.2869 549.7625,653.2869 549.7625,653.2869 C549.7625,653.2869 498.2,653.2869 498.2,643.2869 L498.2,617.99" fill="#F1F1F1" style="stroke:#181818;stroke-width:0.5;"/><path d="M498.2,617.99 C498.2,627.99 549.7625,627.99 549.7625,627.99 C549.7625,627.99 601.325,627.99 601.325,617.99" fill="none" style="stroke:#181818;stroke-width:0.5;"/><text fill="#000000" font-family="sans-serif" font-size="14" lengthAdjust="spacing" textLength="83.125" x="508.2" y="644.9851">scheduleDB</text></g><!--entity timeslotDB--><g class="entity" data-entity="timeslotDB" data-source-line="47" data-uid="ent0031" id="entity_timeslotDB"><path d="M917.13,617.99 C917.13,607.99 965.7565,607.99 965.7565,607.99 C965.7565,607.99 1014.3829,607.99 1014.3829,617.99 L1014.3829,643.2869 C1014.3829,653.2869 965.7565,653.2869 965.7565,653.2869 C965.7565,653.2869 917.13,653.2869 917.13,643.2869 L917.13,617.99" fill="#F1F1F1" style="stroke:#181818;stroke-width:0.5;"/><path d="M917.13,617.99 C917.13,627.99 965.7565,627.99 965.7565,627.99 C965.7565,627.99 1014.3829,627.99 1014.3829,617.99" fill="none" style="stroke:#181818;stroke-width:0.5;"/><text fill="#000000" font-family="sans-serif" font-size="14" lengthAdjust="spacing" textLength="77.2529" x="927.13" y="644.9851">timeslotDB</text></g><!--link courseListing to courseProvider--><g class="link" data-entity-1="courseListing" data-entity-2="courseProvider" data-source-line="11" data-uid="lnk7" id="link_courseListing_courseProvider"><path d="M1343.97,407.46 C1343.09,420.99 1342.31,438.57 1342.76,454.19 C1343.04,463.89 1343.2378,468.6016 1343.8078,477.7716" fill="none" id="courseListing-to-courseProvider" style="stroke:#181818;stroke-width:1;"/><polygon fill="#181818" points="1344.18,483.76,1347.6139,474.5292,1343.8698,478.7696,1339.6293,475.0255,1344.18,483.76" style="stroke:#181818;stroke-width:1;"/><text fill="#000000" font-family="sans-serif" font-size="13" lengthAdjust="spacing" textLength="209.5298" x="1343.76" y="450.2569">Zobrazuje poskytnut&#233; p&#345;edm&#283;ty</text></g><!--link courseProvider to courseRepository--><g class="link" data-entity-1="courseProvider" data-entity-2="courseRepository" data-source-line="12" data-uid="lnk8" id="link_courseProvider_courseRepository"><path d="M1356.23,530.76 C1363.81,545.3 1375.09,563.97 1388.76,577.49 C1400.31,588.9 1409.6371,595.87 1423.4371,603.98" fill="none" id="courseProvider-to-courseRepository" style="stroke:#181818;stroke-width:1;"/><polygon fill="#181818" points="1428.61,607.02,1422.8774,599.0114,1424.2993,604.4867,1418.8241,605.9086,1428.61,607.02" style="stroke:#181818;stroke-width:1;"/><text fill="#000000" font-family="sans-serif" font-size="13" lengthAdjust="spacing" textLength="163.103" x="1389.76" y="573.5569">Na&#269;&#237;t&#225; z&#225;znamy s histori&#237;</text></g><!--link courseEditForms to courseManager--><g class="link" data-entity-1="courseEditForms" data-entity-2="courseManager" data-source-line="13" data-uid="lnk9" id="link_courseEditForms_courseManager"><path d="M1091.76,53.68 C1091.76,75.47 1091.76,102.29 1091.76,124.04" fill="none" id="courseEditForms-to-courseManager" style="stroke:#181818;stroke-width:1;"/><polygon fill="#181818" points="1091.76,130.04,1095.76,121.04,1091.76,125.04,1087.76,121.04,1091.76,130.04" style="stroke:#181818;stroke-width:1;"/><text fill="#000000" font-family="sans-serif" font-size="13" lengthAdjust="spacing" textLength="185.8784" x="1092.76" y="96.3669">Odes&#237;l&#225; po&#382;adavky u&#382;ivatele</text></g><!--link courseManager to courseRepository--><g class="link" data-entity-1="courseManager" data-entity-2="courseRepository" data-source-line="14" data-uid="lnk10" id="link_courseManager_courseRepository"><path d="M1173.16,155.44 C1312.01,159.36 1579.76,177.57 1579.76,259.74 C1579.76,259.74 1579.76,259.74 1579.76,508.34 C1579.76,540.59 1577.5,551.99 1557.76,577.49 C1548.59,589.33 1541.0244,596.0364 1528.3344,603.8764" fill="none" id="courseManager-to-courseRepository" style="stroke:#181818;stroke-width:1;"/><polygon fill="#181818" points="1523.23,607.03,1532.989,605.7026,1527.4837,604.402,1528.7843,598.8967,1523.23,607.03" style="stroke:#181818;stroke-width:1;"/><text fill="#000000" font-family="sans-serif" font-size="13" lengthAdjust="spacing" textLength="139.5088" x="1580.76" y="388.6069">Ukl&#225;d&#225; validn&#237; zm&#283;ny</text></g><!--link scheduleEditForms to scheduleManager--><g class="link" data-entity-1="scheduleEditForms" data-entity-2="scheduleManager" data-source-line="30" data-uid="lnk18" id="link_scheduleEditForms_scheduleManager"><path d="M428.87,284.27 C429.95,306.06 431.2724,332.8874 432.3524,354.6374" fill="none" id="scheduleEditForms-to-scheduleManager" style="stroke:#181818;stroke-width:1;"/><polygon fill="#181818" points="432.65,360.63,436.1987,351.4427,432.402,355.6362,428.2086,351.8395,432.65,360.63" style="stroke:#181818;stroke-width:1;"/><text fill="#000000" font-family="sans-serif" font-size="13" lengthAdjust="spacing" textLength="149.627" x="432.12" y="326.9569">&#381;ad&#225; o vytvo&#345;en&#237; l&#237;stk&#367;</text></g><!--link scheduleManager to scheduleRepository--><g class="link" data-entity-1="scheduleManager" data-entity-2="scheduleRepository" data-source-line="31" data-uid="lnk19" id="link_scheduleManager_scheduleRepository"><path d="M426.43,407.68 C423.2,422.12 421.88,440.61 430.76,454.19 C439.03,466.84 445.8523,473.5674 459.2023,480.8474" fill="none" id="scheduleManager-to-scheduleRepository" style="stroke:#181818;stroke-width:1;"/><polygon fill="#181818" points="464.47,483.72,458.4835,475.8994,460.0803,481.3262,454.6534,482.9229,464.47,483.72" style="stroke:#181818;stroke-width:1;"/><text fill="#000000" font-family="sans-serif" font-size="13" lengthAdjust="spacing" textLength="139.5088" x="431.76" y="450.2569">Ukl&#225;d&#225; validn&#237; zm&#283;ny</text></g><!--link scheduleManager to timeslotRepository--><g class="link" data-entity-1="scheduleManager" data-entity-2="timeslotRepository" data-source-line="32" data-uid="lnk20" id="link_scheduleManager_timeslotRepository"><path d="M500.97,407.6 C524.87,416.18 551.78,426.48 575.76,437.19 C590.46,443.76 592.45,449.18 607.76,454.19 C678.94,477.5 755.5229,489.7823 823.4029,496.9223" fill="none" id="scheduleManager-to-timeslotRepository" style="stroke:#181818;stroke-width:1;"/><polygon fill="#181818" points="829.37,497.55,820.8378,492.6305,824.3974,497.027,820.0009,500.5866,829.37,497.55" style="stroke:#181818;stroke-width:1;"/><text fill="#000000" font-family="sans-serif" font-size="13" lengthAdjust="spacing" textLength="150.6426" x="608.76" y="450.2569">Z&#237;sk&#225;v&#225; dostupn&#233; sloty</text></g><!--link scheduleManager to scheduleNotifications--><g class="link" data-entity-1="scheduleManager" data-entity-2="scheduleNotifications" data-source-line="33" data-uid="lnk21" id="link_scheduleManager_scheduleNotifications"><path d="M322.64,397.25 C265.99,405.59 204.7,418.54 183.76,437.19 C170.53,448.97 165.8148,462.6217 163.4248,477.9417" fill="none" id="scheduleManager-to-scheduleNotifications" style="stroke:#181818;stroke-width:1;"/><polygon fill="#181818" points="162.5,483.87,167.8395,475.5941,163.2707,478.9298,159.9351,474.361,162.5,483.87" style="stroke:#181818;stroke-width:1;"/><text fill="#000000" font-family="sans-serif" font-size="13" lengthAdjust="spacing" textLength="231.1309" x="184.76" y="450.2569">rozes&#237;l&#225; notifikace v p&#345;&#237;pad&#283; zm&#283;ny</text></g><!--link scheduleListing to scheduleProvider--><g class="link" data-entity-1="scheduleListing" data-entity-2="scheduleProvider" data-source-line="34" data-uid="lnk22" id="link_scheduleListing_scheduleProvider"><path d="M1018.2,284.27 C1017.66,306.06 1016.9989,332.8818 1016.4589,354.6318" fill="none" id="scheduleListing-to-scheduleProvider" style="stroke:#181818;stroke-width:1;"/><polygon fill="#181818" points="1016.31,360.63,1020.5321,351.7321,1016.4341,355.6315,1012.5346,351.5335,1016.31,360.63" style="stroke:#181818;stroke-width:1;"/><text fill="#000000" font-family="sans-serif" font-size="13" lengthAdjust="spacing" textLength="139.623" x="1018.44" y="326.9569">Zobrazuje rozv. l&#237;stky</text></g><!--link scheduleProvider to courseProvider--><g class="link" data-entity-1="scheduleProvider" data-entity-2="courseProvider" data-source-line="35" data-uid="lnk23" id="link_scheduleProvider_courseProvider"><path d="M1060.94,407.64 C1090.81,422.07 1131.07,440.55 1167.76,454.19 C1197.19,465.13 1224.2513,473.6501 1253.6213,482.0501" fill="none" id="scheduleProvider-to-courseProvider" style="stroke:#181818;stroke-width:1;"/><polygon fill="#181818" points="1259.39,483.7,1251.8369,477.3794,1254.5828,482.3251,1249.637,485.071,1259.39,483.7" style="stroke:#181818;stroke-width:1;"/><text fill="#000000" font-family="sans-serif" font-size="13" lengthAdjust="spacing" textLength="165.6167" x="1168.76" y="450.2569">Agreguje rozv. l&#237;stky p&#345;es</text></g><!--link scheduleProvider to timeslotRepository--><g class="link" data-entity-1="scheduleProvider" data-entity-2="timeslotRepository" data-source-line="36" data-uid="lnk24" id="link_scheduleProvider_timeslotRepository"><path d="M1006.47,407.57 C997.49,429.36 986.2454,456.6323 977.2854,478.3823" fill="none" id="scheduleProvider-to-timeslotRepository" style="stroke:#181818;stroke-width:1;"/><polygon fill="#181818" points="975,483.93,982.1266,477.132,976.9045,479.3069,974.7296,474.0849,975,483.93" style="stroke:#181818;stroke-width:1;"/><text fill="#000000" font-family="sans-serif" font-size="13" lengthAdjust="spacing" textLength="85.1919" x="994.75" y="450.2569">Filtruje podle</text></g><!--link scheduleProvider to scheduleRepository--><g class="link" data-entity-1="scheduleProvider" data-entity-2="scheduleRepository" data-source-line="37" data-uid="lnk25" id="link_scheduleProvider_scheduleRepository"><path d="M921.68,407.52 C887.78,416.13 849.37,426.47 814.76,437.19 C793.54,443.76 789.04,447.82 767.76,454.19 C731.32,465.1 696.7625,473.9143 660.7425,482.3343" fill="none" id="scheduleProvider-to-scheduleRepository" style="stroke:#181818;stroke-width:1;"/><polygon fill="#181818" points="654.9,483.7,664.5742,485.5464,659.7687,482.5619,662.7533,477.7564,654.9,483.7" style="stroke:#181818;stroke-width:1;"/><text fill="#000000" font-family="sans-serif" font-size="13" lengthAdjust="spacing" textLength="163.103" x="815.76" y="450.2569">Na&#269;&#237;t&#225; z&#225;znamy s histori&#237;</text></g><!--link courseManager to scheduleManager--><g class="link" data-entity-1="courseManager" data-entity-2="scheduleManager" data-source-line="39" data-uid="lnk26" id="link_courseManager_scheduleManager"><path d="M1010.32,159.72 C893.14,168.82 684.66,191.16 626.76,237.6 C591.7,265.71 620.62,300.24 587.76,330.89 C574.14,343.6 562.8388,350.9132 545.3588,358.1932" fill="none" id="courseManager-to-scheduleManager" style="stroke:#181818;stroke-width:1;"/><polygon fill="#181818" points="539.82,360.5,549.6661,360.7324,544.4357,358.5777,546.5904,353.3473,539.82,360.5" style="stroke:#181818;stroke-width:1;"/><text fill="#000000" font-family="sans-serif" font-size="13" lengthAdjust="spacing" textLength="288.3613" x="627.76" y="265.3069">Ma&#382;e rozvrhov&#233; l&#237;stky smazan&#233;ho p&#345;edm&#283;tu</text></g><!--link scheduleNotifications to notifications--><g class="link" data-entity-1="scheduleNotifications" data-entity-2="notifications" data-source-line="43" data-uid="lnk28" id="link_scheduleNotifications_notifications"><path d="M160.76,530.87 C160.76,552.66 160.76,579.48 160.76,601.22" fill="none" id="scheduleNotifications-to-notifications" style="stroke:#181818;stroke-width:1;"/><polygon fill="#181818" points="160.76,607.22,164.76,598.22,160.76,602.22,156.76,598.22,160.76,607.22" style="stroke:#181818;stroke-width:1;"/></g><!--link courseRepository to courseDB--><g class="link" data-entity-1="courseRepository" data-entity-2="courseDB" data-source-line="48" data-uid="lnk32" id="link_courseRepository_courseDB"><path d="M1474.76,654.12 C1474.76,671.92 1474.76,690.65 1474.76,708.35" fill="none" id="courseRepository-to-courseDB" style="stroke:#181818;stroke-width:1;"/><polygon fill="#181818" points="1474.76,714.35,1478.76,705.35,1474.76,709.35,1470.76,705.35,1474.76,714.35" style="stroke:#181818;stroke-width:1;"/></g><!--link scheduleRepository to scheduleDB--><g class="link" data-entity-1="scheduleRepository" data-entity-2="scheduleDB" data-source-line="49" data-uid="lnk33" id="link_scheduleRepository_scheduleDB"><path d="M549.76,530.87 C549.76,552.79 549.76,579.89 549.76,601.63" fill="none" id="scheduleRepository-to-scheduleDB" style="stroke:#181818;stroke-width:1;"/><polygon fill="#181818" points="549.76,607.63,553.76,598.63,549.76,602.63,545.76,598.63,549.76,607.63" style="stroke:#181818;stroke-width:1;"/></g><!--link timeslotRepository to timeslotDB--><g class="link" data-entity-1="timeslotRepository" data-entity-2="timeslotDB" data-source-line="50" data-uid="lnk34" id="link_timeslotRepository_timeslotDB"><path d="M965.76,530.87 C965.76,552.79 965.76,579.89 965.76,601.63" fill="none" id="timeslotRepository-to-timeslotDB" style="stroke:#181818;stroke-width:1;"/><polygon fill="#181818" points="965.76,607.63,969.76,598.63,965.76,602.63,961.76,598.63,965.76,607.63" style="stroke:#181818;stroke-width:1;"/></g><!--SRC=[ZLMxRjim5Dtz5KGofzup54ZH1XsQD6YHfTkroDgi958WAG7IF_W3YamUCmZzWdYH_L-zrCEaPShnPjFt75wUS-vr9DDC2YOCkVeb5meg9ffw_erh8ujcWvz9jl_BQBfxCVj_LmGqYMIkDBCLN2p9TSP5F8iSoxrKQPuq6qIHJ4bY2gaM-PnHRY3YynIgSxHViCmow9xOPtwIEYwnBJ0icO0_ALbmojGHxcUccaq14v074B0S8PuJkT-sGdorGYXUGSGcy3zO9ZN7ef9SBnKhBP4lqCtDnr5pv7RGEl-3hEshH6wQLtT3UJKROHoDTo4IFS9ktTIcsH3KjHAGbaIJLTTrKmyqJbR7qp_SadodJ3SrceRTxBT0eOXBak-tlDMQ3Im3OggNvnWfAB8Ka71gJQxmCG8VuulhOaQKh0grobirTRHYD4z6mPhqluFsJWpOeFqka5uUITBKsiGZ_Bdq3IdgBiRXU8jMOPRB4_K-LoXT1z97QVXl7bicsKczUxc0iuD5OBWKEa1xHnN6mUgLMhYGsc3VkpNedbKdSfW1mrDclvxsUQgfZSr88vkQ_HlOp4XIbEWDJe1Dng7nsHZXirmQln17e7CxbtXlZ3uZ2yLtvvd0iRHbvVbEZZMzjIuC8oMSIuMTyAREWA9HNNEpSUvzrl36i0v_w1NosWgi2Xz_XxOiJ-3joj4J9669xdbYLBUvgDqDGMZOeVUMrScU2IVc0N2MND1V3u_H-Ey2wDXAkbMQMzf4vjJDosvjmw4Jt70BQ6CiVFjSTezTjTsC2YaOM81clTwVFxcJWSC_6mJ5ivFzwLp3NmFo-LfWHS0RtpAi-0y0]--></g></svg>