<svg xmlns="http://www.w3.org/2000/svg" xmlns:xlink="http://www.w3.org/1999/xlink" contentStyleType="text/css" data-diagram-type="DESCRIPTION" height="546px" preserveAspectRatio="none" style="width:1817px;height:546px;background:#FFFFFF;" version="1.1" viewBox="0 0 1817 546" width="1817px" zoomAndPan="magnify"><defs/><g><!--entity courseListing--><g class="entity" data-entity="courseListing" data-source-line="2" data-uid="ent0002" id="entity_courseListing"><rect fill="#FFC0CB" height="46.2969" rx="2.5" ry="2.5" style="stroke:#181818;stroke-width:0.5;" width="250.6904" x="7" y="130.29"/><rect fill="#FFC0CB" height="10" style="stroke:#181818;stroke-width:0.5;" width="15" x="237.6904" y="135.29"/><rect fill="#FFC0CB" height="2" style="stroke:#181818;stroke-width:0.5;" width="4" x="235.6904" y="137.29"/><rect fill="#FFC0CB" height="2" style="stroke:#181818;stroke-width:0.5;" width="4" x="235.6904" y="141.29"/><text fill="#000000" font-family="sans-serif" font-size="14" lengthAdjust="spacing" textLength="210.6904" x="22" y="163.2851">Zobrazen&#237;/Listov&#225;n&#237; p&#345;edm&#283;t&#367;</text></g><!--entity courseEditForms--><g class="entity" data-entity="courseEditForms" data-source-line="3" data-uid="ent0003" id="entity_courseEditForms"><rect fill="#FFC0CB" height="46.2969" rx="2.5" ry="2.5" style="stroke:#181818;stroke-width:0.5;" width="370.2783" x="292.21" y="130.29"/><rect fill="#FFC0CB" height="10" style="stroke:#181818;stroke-width:0.5;" width="15" x="642.4883" y="135.29"/><rect fill="#FFC0CB" height="2" style="stroke:#181818;stroke-width:0.5;" width="4" x="640.4883" y="137.29"/><rect fill="#FFC0CB" height="2" style="stroke:#181818;stroke-width:0.5;" width="4" x="640.4883" y="141.29"/><text fill="#000000" font-family="sans-serif" font-size="14" lengthAdjust="spacing" textLength="330.2783" x="307.21" y="163.2851">Formul&#225;&#345;e pro tvorbu/editaci/maz&#225;n&#237; p&#345;edm&#283;t&#367;</text></g><!--entity courseProvider--><g class="entity" data-entity="courseProvider" data-source-line="5" data-uid="ent0004" id="entity_courseProvider"><rect fill="#F1F1F1" height="46.2969" rx="2.5" ry="2.5" style="stroke:#181818;stroke-width:0.5;" width="202.8115" x="158.94" y="253.59"/><rect fill="#F1F1F1" height="10" style="stroke:#181818;stroke-width:0.5;" width="15" x="341.7515" y="258.59"/><rect fill="#F1F1F1" height="2" style="stroke:#181818;stroke-width:0.5;" width="4" x="339.7515" y="260.59"/><rect fill="#F1F1F1" height="2" style="stroke:#181818;stroke-width:0.5;" width="4" x="339.7515" y="264.59"/><text fill="#000000" font-family="sans-serif" font-size="14" lengthAdjust="spacing" textLength="162.8115" x="173.94" y="286.5851">Poskytovatel p&#345;edm&#283;t&#367;</text></g><!--entity courseManager--><g class="entity" data-entity="courseManager" data-source-line="7" data-uid="ent0005" id="entity_courseManager"><rect fill="#F1F1F1" height="46.2969" rx="2.5" ry="2.5" style="stroke:#181818;stroke-width:0.5;" width="162.1787" x="396.26" y="253.59"/><rect fill="#F1F1F1" height="10" style="stroke:#181818;stroke-width:0.5;" width="15" x="538.4387" y="258.59"/><rect fill="#F1F1F1" height="2" style="stroke:#181818;stroke-width:0.5;" width="4" x="536.4387" y="260.59"/><rect fill="#F1F1F1" height="2" style="stroke:#181818;stroke-width:0.5;" width="4" x="536.4387" y="264.59"/><text fill="#000000" font-family="sans-serif" font-size="14" lengthAdjust="spacing" textLength="122.1787" x="411.26" y="286.5851">Spr&#225;va p&#345;edm&#283;t&#367;</text></g><!--entity courseRepository--><g class="entity" data-entity="courseRepository" data-source-line="9" data-uid="ent0006" id="entity_courseRepository"><rect fill="#808080" height="46.2969" rx="2.5" ry="2.5" style="stroke:#181818;stroke-width:0.5;" width="246.999" x="243.85" y="376.89"/><rect fill="#808080" height="10" style="stroke:#181818;stroke-width:0.5;" width="15" x="470.849" y="381.89"/><rect fill="#808080" height="2" style="stroke:#181818;stroke-width:0.5;" width="4" x="468.849" y="383.89"/><rect fill="#808080" height="2" style="stroke:#181818;stroke-width:0.5;" width="4" x="468.849" y="387.89"/><text fill="#000000" font-family="sans-serif" font-size="14" lengthAdjust="spacing" textLength="206.999" x="258.85" y="409.8851">Ulo&#382;en&#237;/Historizace p&#345;edm&#283;t&#367;</text></g><!--entity scheduleListing--><g class="entity" data-entity="scheduleListing" data-source-line="16" data-uid="ent0011" id="entity_scheduleListing"><rect fill="#FFC0CB" height="46.2969" rx="2.5" ry="2.5" style="stroke:#181818;stroke-width:0.5;" width="168.0098" x="827.34" y="7"/><rect fill="#FFC0CB" height="10" style="stroke:#181818;stroke-width:0.5;" width="15" x="975.3498" y="12"/><rect fill="#FFC0CB" height="2" style="stroke:#181818;stroke-width:0.5;" width="4" x="973.3498" y="14"/><rect fill="#FFC0CB" height="2" style="stroke:#181818;stroke-width:0.5;" width="4" x="973.3498" y="18"/><text fill="#000000" font-family="sans-serif" font-size="14" lengthAdjust="spacing" textLength="128.0098" x="842.34" y="39.9951">Zobrazen&#237; rozvrhu</text></g><!--entity scheduleProvider--><g class="entity" data-entity="scheduleProvider" data-source-line="18" data-uid="ent0012" id="entity_scheduleProvider"><rect fill="#F1F1F1" height="46.2969" rx="2.5" ry="2.5" style="stroke:#181818;stroke-width:0.5;" width="187.5127" x="817.59" y="130.29"/><rect fill="#F1F1F1" height="10" style="stroke:#181818;stroke-width:0.5;" width="15" x="985.1027" y="135.29"/><rect fill="#F1F1F1" height="2" style="stroke:#181818;stroke-width:0.5;" width="4" x="983.1027" y="137.29"/><rect fill="#F1F1F1" height="2" style="stroke:#181818;stroke-width:0.5;" width="4" x="983.1027" y="141.29"/><text fill="#000000" font-family="sans-serif" font-size="14" lengthAdjust="spacing" textLength="147.5127" x="832.59" y="163.2851">Poskytovatel rozvrh&#367;</text></g><!--entity scheduleEditForms--><g class="entity" data-entity="scheduleEditForms" data-source-line="20" data-uid="ent0013" id="entity_scheduleEditForms"><rect fill="#FFC0CB" height="46.2969" rx="2.5" ry="2.5" style="stroke:#181818;stroke-width:0.5;" width="223.0664" x="1312.81" y="7"/><rect fill="#FFC0CB" height="10" style="stroke:#181818;stroke-width:0.5;" width="15" x="1515.8764" y="12"/><rect fill="#FFC0CB" height="2" style="stroke:#181818;stroke-width:0.5;" width="4" x="1513.8764" y="14"/><rect fill="#FFC0CB" height="2" style="stroke:#181818;stroke-width:0.5;" width="4" x="1513.8764" y="18"/><text fill="#000000" font-family="sans-serif" font-size="14" lengthAdjust="spacing" textLength="183.0664" x="1327.81" y="39.9951">Formul&#225;&#345; pro tvorbu l&#237;stk&#367;</text></g><!--entity scheduleManager--><g class="entity" data-entity="scheduleManager" data-source-line="22" data-uid="ent0014" id="entity_scheduleManager"><rect fill="#F1F1F1" height="46.2969" rx="2.5" ry="2.5" style="stroke:#181818;stroke-width:0.5;" width="221.7061" x="1313.49" y="130.29"/><rect fill="#F1F1F1" height="10" style="stroke:#181818;stroke-width:0.5;" width="15" x="1515.1961" y="135.29"/><rect fill="#F1F1F1" height="2" style="stroke:#181818;stroke-width:0.5;" width="4" x="1513.1961" y="137.29"/><rect fill="#F1F1F1" height="2" style="stroke:#181818;stroke-width:0.5;" width="4" x="1513.1961" y="141.29"/><text fill="#000000" font-family="sans-serif" font-size="14" lengthAdjust="spacing" textLength="181.7061" x="1328.49" y="163.2851">Spr&#225;va rozvrhov&#253;ch l&#237;stk&#367;</text></g><!--entity scheduleRepository--><g class="entity" data-entity="scheduleRepository" data-source-line="24" data-uid="ent0015" id="entity_scheduleRepository"><rect fill="#808080" height="46.2969" rx="2.5" ry="2.5" style="stroke:#181818;stroke-width:0.5;" width="306.5264" x="772.08" y="253.59"/><rect fill="#808080" height="10" style="stroke:#181818;stroke-width:0.5;" width="15" x="1058.6064" y="258.59"/><rect fill="#808080" height="2" style="stroke:#181818;stroke-width:0.5;" width="4" x="1056.6064" y="260.59"/><rect fill="#808080" height="2" style="stroke:#181818;stroke-width:0.5;" width="4" x="1056.6064" y="264.59"/><text fill="#000000" font-family="sans-serif" font-size="14" lengthAdjust="spacing" textLength="266.5264" x="787.08" y="286.5851">Ulo&#382;en&#237;/Historizace rozvrhov&#253;ch l&#237;stk&#367;</text></g><!--entity scheduleNotifications--><g class="entity" data-entity="scheduleNotifications" data-source-line="26" data-uid="ent0016" id="entity_scheduleNotifications"><rect fill="#808080" height="46.2969" rx="2.5" ry="2.5" style="stroke:#181818;stroke-width:0.5;" width="307.5176" x="1462.59" y="253.59"/><rect fill="#808080" height="10" style="stroke:#181818;stroke-width:0.5;" width="15" x="1750.1076" y="258.59"/><rect fill="#808080" height="2" style="stroke:#181818;stroke-width:0.5;" width="4" x="1748.1076" y="260.59"/><rect fill="#808080" height="2" style="stroke:#181818;stroke-width:0.5;" width="4" x="1748.1076" y="264.59"/><text fill="#000000" font-family="sans-serif" font-size="14" lengthAdjust="spacing" textLength="267.5176" x="1477.59" y="286.5851">Notifikace o zm&#283;n&#283; rozvrhov&#253;ch l&#237;stk&#367;</text></g><!--entity timeslotRepository--><g class="entity" data-entity="timeslotRepository" data-source-line="28" data-uid="ent0017" id="entity_timeslotRepository"><rect fill="#808080" height="46.2969" rx="2.5" ry="2.5" style="stroke:#181818;stroke-width:0.5;" width="271.8887" x="1127.4" y="253.59"/><rect fill="#808080" height="10" style="stroke:#181818;stroke-width:0.5;" width="15" x="1379.2887" y="258.59"/><rect fill="#808080" height="2" style="stroke:#181818;stroke-width:0.5;" width="4" x="1377.2887" y="260.59"/><rect fill="#808080" height="2" style="stroke:#181818;stroke-width:0.5;" width="4" x="1377.2887" y="264.59"/><text fill="#000000" font-family="sans-serif" font-size="14" lengthAdjust="spacing" textLength="231.8887" x="1142.4" y="286.5851">Adres&#225;&#345; m&#237;stnost&#237;/&#269;asov&#253;ch slot&#367;</text></g><!--entity notifications--><g class="entity" data-entity="notifications" data-source-line="39" data-uid="ent0026" id="entity_notifications"><path d="M1549.5382,385.2956 C1553.0069,380.0355 1557.4403,380.5702 1559.7784,386.3448 C1562.6403,379.9469 1568.702,379.7475 1572.5484,385.2921 C1575.4741,380.91 1579.936,380.6175 1583.0613,385.0542 C1585.3799,379.3375 1590.6837,376.7458 1595.2113,382.7679 C1598.6647,378.9151 1602.7883,378.2935 1605.2187,383.8554 C1608.0077,377.088 1613.3227,377.8381 1617.0813,382.8815 C1620.9624,376.2263 1625.2443,377.2463 1629.3321,382.672 C1632.6457,377.256 1637.0772,378.0163 1640.2417,382.8309 C1644.7643,377.4742 1648.2496,378.4892 1651.7954,383.8808 C1655.9303,379.0466 1659.5086,378.5547 1662.6735,384.8306 C1667.3517,379.0986 1671.7266,379.5096 1675.0427,386.1882 C1678.3002,381.1963 1681.7038,380.9063 1685.6569,385.4106 C1695.3896,387.1359 1697.5238,392.7172 1693.0029,401.1114 C1697.3314,408.9918 1695.937,414.2886 1686.6958,416.6673 C1684.537,423.7139 1678.7538,423.0027 1674.7115,418.6469 C1671.8096,424.267 1666.8069,424.2677 1664.022,418.5367 C1661.901,424.6946 1657.2407,426.4779 1652.1659,421.7554 C1648.0113,426.8204 1644.2047,427.7389 1639.9875,421.8249 C1637.7492,427.7411 1632.8768,429.6644 1628.375,424.118 C1625.3974,428.6306 1622.4337,429.6025 1618.4239,425.2806 C1614.0635,431.0148 1608.7929,431.2778 1605.5212,424.1854 C1601.6911,429.7023 1596.7792,429.3395 1593.7965,423.324 C1589.8825,427.1402 1584.7226,426.6634 1583.5315,420.5181 C1579.5265,426.3565 1574.2463,425.4289 1572.0514,418.8453 C1567.8379,424.0413 1563.1912,424.0717 1560.0174,417.7582 C1555.7978,421.9543 1552.2196,421.7184 1548.8616,416.7136 C1539.4483,416.4039 1536.994,410.0424 1540.1877,402.1988 C1536.1362,392.5186 1538.3994,386.5729 1549.5382,385.2956" fill="#F1F1F1" style="stroke:#181818;stroke-width:0.5;"/><text fill="#000000" font-family="sans-serif" font-size="14" lengthAdjust="spacing" textLength="123.7031" x="1554.49" y="404.8851">Notifika&#269;n&#237; slu&#382;ba</text></g><!--entity courseDB--><g class="entity" data-entity="courseDB" data-source-line="43" data-uid="ent0028" id="entity_courseDB"><path d="M323.75,494.18 C323.75,484.18 367.3418,484.18 367.3418,484.18 C367.3418,484.18 410.9336,484.18 410.9336,494.18 L410.9336,519.4769 C410.9336,529.4769 367.3418,529.4769 367.3418,529.4769 C367.3418,529.4769 323.75,529.4769 323.75,519.4769 L323.75,494.18" fill="#F1F1F1" style="stroke:#181818;stroke-width:0.5;"/><path d="M323.75,494.18 C323.75,504.18 367.3418,504.18 367.3418,504.18 C367.3418,504.18 410.9336,504.18 410.9336,494.18" fill="none" style="stroke:#181818;stroke-width:0.5;"/><text fill="#000000" font-family="sans-serif" font-size="14" lengthAdjust="spacing" textLength="67.1836" x="333.75" y="521.1751">courseDB</text></g><!--entity scheduleDB--><g class="entity" data-entity="scheduleDB" data-source-line="44" data-uid="ent0029" id="entity_scheduleDB"><path d="M873.78,387.39 C873.78,377.39 925.3425,377.39 925.3425,377.39 C925.3425,377.39 976.905,377.39 976.905,387.39 L976.905,412.6869 C976.905,422.6869 925.3425,422.6869 925.3425,422.6869 C925.3425,422.6869 873.78,422.6869 873.78,412.6869 L873.78,387.39" fill="#F1F1F1" style="stroke:#181818;stroke-width:0.5;"/><path d="M873.78,387.39 C873.78,397.39 925.3425,397.39 925.3425,397.39 C925.3425,397.39 976.905,397.39 976.905,387.39" fill="none" style="stroke:#181818;stroke-width:0.5;"/><text fill="#000000" font-family="sans-serif" font-size="14" lengthAdjust="spacing" textLength="83.125" x="883.78" y="414.3851">scheduleDB</text></g><!--entity timeslotDB--><g class="entity" data-entity="timeslotDB" data-source-line="45" data-uid="ent0030" id="entity_timeslotDB"><path d="M1214.72,387.39 C1214.72,377.39 1263.3465,377.39 1263.3465,377.39 C1263.3465,377.39 1311.9729,377.39 1311.9729,387.39 L1311.9729,412.6869 C1311.9729,422.6869 1263.3465,422.6869 1263.3465,422.6869 C1263.3465,422.6869 1214.72,422.6869 1214.72,412.6869 L1214.72,387.39" fill="#F1F1F1" style="stroke:#181818;stroke-width:0.5;"/><path d="M1214.72,387.39 C1214.72,397.39 1263.3465,397.39 1263.3465,397.39 C1263.3465,397.39 1311.9729,397.39 1311.9729,387.39" fill="none" style="stroke:#181818;stroke-width:0.5;"/><text fill="#000000" font-family="sans-serif" font-size="14" lengthAdjust="spacing" textLength="77.2529" x="1224.72" y="414.3851">timeslotDB</text></g><!--link courseListing to courseProvider--><g class="link" data-entity-1="courseListing" data-entity-2="courseProvider" data-source-line="11" data-uid="lnk7" id="link_courseListing_courseProvider"><path d="M156.12,176.97 C179.11,198.76 209.395,227.4527 232.345,249.2027" fill="none" id="courseListing-to-courseProvider" style="stroke:#181818;stroke-width:1;"/><polygon fill="#181818" points="236.7,253.33,232.9191,244.2358,233.0709,249.8906,227.416,250.0424,236.7,253.33" style="stroke:#181818;stroke-width:1;"/><text fill="#000000" font-family="sans-serif" font-size="13" lengthAdjust="spacing" textLength="209.5298" x="205.01" y="219.6569">Zobrazuje poskytnut&#233; p&#345;edm&#283;ty</text></g><!--link courseProvider to courseRepository--><g class="link" data-entity-1="courseProvider" data-entity-2="courseRepository" data-source-line="12" data-uid="lnk8" id="link_courseProvider_courseRepository"><path d="M255.81,300.35 C254.18,314.79 254.53,333.27 263.35,346.89 C271.47,359.43 278.3605,366.1384 291.4805,373.5184" fill="none" id="courseProvider-to-courseRepository" style="stroke:#181818;stroke-width:1;"/><polygon fill="#181818" points="296.71,376.46,290.8269,368.5613,292.3521,374.0087,286.9048,375.534,296.71,376.46" style="stroke:#181818;stroke-width:1;"/><text fill="#000000" font-family="sans-serif" font-size="13" lengthAdjust="spacing" textLength="163.103" x="264.35" y="342.9569">Na&#269;&#237;t&#225; z&#225;znamy s histori&#237;</text></g><!--link courseEditForms to courseManager--><g class="link" data-entity-1="courseEditForms" data-entity-2="courseManager" data-source-line="13" data-uid="lnk9" id="link_courseEditForms_courseManager"><path d="M475.55,176.86 C474.68,190.39 473.9,207.97 474.35,223.59 C474.62,233.29 474.8178,238.0016 475.3878,247.1716" fill="none" id="courseEditForms-to-courseManager" style="stroke:#181818;stroke-width:1;"/><polygon fill="#181818" points="475.76,253.16,479.1939,243.9292,475.4498,248.1696,471.2093,244.4255,475.76,253.16" style="stroke:#181818;stroke-width:1;"/><text fill="#000000" font-family="sans-serif" font-size="13" lengthAdjust="spacing" textLength="185.8784" x="475.35" y="219.6569">Odes&#237;l&#225; po&#382;adavky u&#382;ivatele</text></g><!--link courseManager to courseRepository--><g class="link" data-entity-1="courseManager" data-entity-2="courseRepository" data-source-line="14" data-uid="lnk10" id="link_courseManager_courseRepository"><path d="M465.2,300.19 C456.95,314.38 445.23,332.66 432.35,346.89 C422.63,357.61 415.3323,364.2344 404.2623,372.8144" fill="none" id="courseManager-to-courseRepository" style="stroke:#181818;stroke-width:1;"/><polygon fill="#181818" points="399.52,376.49,409.0839,374.1381,403.4719,373.427,404.1831,367.815,399.52,376.49" style="stroke:#181818;stroke-width:1;"/><text fill="#000000" font-family="sans-serif" font-size="13" lengthAdjust="spacing" textLength="139.5088" x="446.13" y="342.9569">Ukl&#225;d&#225; validn&#237; zm&#283;ny</text></g><!--link scheduleEditForms to scheduleManager--><g class="link" data-entity-1="scheduleEditForms" data-entity-2="scheduleManager" data-source-line="30" data-uid="lnk18" id="link_scheduleEditForms_scheduleManager"><path d="M1424.35,53.67 C1424.35,75.46 1424.35,102.28 1424.35,124.03" fill="none" id="scheduleEditForms-to-scheduleManager" style="stroke:#181818;stroke-width:1;"/><polygon fill="#181818" points="1424.35,130.03,1428.35,121.03,1424.35,125.03,1420.35,121.03,1424.35,130.03" style="stroke:#181818;stroke-width:1;"/><text fill="#000000" font-family="sans-serif" font-size="13" lengthAdjust="spacing" textLength="149.627" x="1425.35" y="96.3569">&#381;ad&#225; o vytvo&#345;en&#237; l&#237;stk&#367;</text></g><!--link scheduleManager to scheduleRepository--><g class="link" data-entity-1="scheduleManager" data-entity-2="scheduleRepository" data-source-line="31" data-uid="lnk19" id="link_scheduleManager_scheduleRepository"><path d="M1327.37,177.01 C1297.71,185.07 1265.29,195.05 1236.35,206.59 C1221.39,212.55 1219.55,218.27 1204.35,223.59 C1164.58,237.5 1126.1481,246.8387 1084.7481,254.5687" fill="none" id="scheduleManager-to-scheduleRepository" style="stroke:#181818;stroke-width:1;"/><polygon fill="#181818" points="1078.85,255.67,1088.4313,257.9502,1083.7651,254.7523,1086.9629,250.0861,1078.85,255.67" style="stroke:#181818;stroke-width:1;"/><text fill="#000000" font-family="sans-serif" font-size="13" lengthAdjust="spacing" textLength="139.5088" x="1237.35" y="219.6569">Ukl&#225;d&#225; validn&#237; zm&#283;ny</text></g><!--link scheduleManager to timeslotRepository--><g class="link" data-entity-1="scheduleManager" data-entity-2="timeslotRepository" data-source-line="32" data-uid="lnk20" id="link_scheduleManager_timeslotRepository"><path d="M1416.15,176.88 C1409.74,191.79 1399.51,210.9 1385.35,223.59 C1371.62,235.89 1360.0443,243.1565 1343.0743,250.6865" fill="none" id="scheduleManager-to-timeslotRepository" style="stroke:#181818;stroke-width:1;"/><polygon fill="#181818" points="1337.59,253.12,1347.4389,253.1259,1342.1603,251.0921,1344.1941,245.8135,1337.59,253.12" style="stroke:#181818;stroke-width:1;"/><text fill="#000000" font-family="sans-serif" font-size="13" lengthAdjust="spacing" textLength="150.6426" x="1400.49" y="219.6569">Z&#237;sk&#225;v&#225; dostupn&#233; sloty</text></g><!--link scheduleManager to scheduleNotifications--><g class="link" data-entity-1="scheduleManager" data-entity-2="scheduleNotifications" data-source-line="33" data-uid="lnk21" id="link_scheduleManager_scheduleNotifications"><path d="M1502.8,176.98 C1522.3,184.62 1542.43,194.39 1559.35,206.59 C1576.76,219.15 1588.5514,233.3222 1598.8714,248.2722" fill="none" id="scheduleManager-to-scheduleNotifications" style="stroke:#181818;stroke-width:1;"/><polygon fill="#181818" points="1602.28,253.21,1600.459,243.5309,1599.4395,249.0952,1593.8753,248.0757,1602.28,253.21" style="stroke:#181818;stroke-width:1;"/><text fill="#000000" font-family="sans-serif" font-size="13" lengthAdjust="spacing" textLength="231.1309" x="1578.68" y="219.6569">rozes&#237;l&#225; notifikace v p&#345;&#237;pad&#283; zm&#283;ny</text></g><!--link scheduleListing to scheduleProvider--><g class="link" data-entity-1="scheduleListing" data-entity-2="scheduleProvider" data-source-line="34" data-uid="lnk22" id="link_scheduleListing_scheduleProvider"><path d="M911.35,53.67 C911.35,75.46 911.35,102.28 911.35,124.03" fill="none" id="scheduleListing-to-scheduleProvider" style="stroke:#181818;stroke-width:1;"/><polygon fill="#181818" points="911.35,130.03,915.35,121.03,911.35,125.03,907.35,121.03,911.35,130.03" style="stroke:#181818;stroke-width:1;"/><text fill="#000000" font-family="sans-serif" font-size="13" lengthAdjust="spacing" textLength="139.623" x="912.35" y="96.3569">Zobrazuje rozv. l&#237;stky</text></g><!--link scheduleProvider to courseProvider--><g class="link" data-entity-1="scheduleProvider" data-entity-2="courseProvider" data-source-line="35" data-uid="lnk23" id="link_scheduleProvider_courseProvider"><path d="M833.61,177 C768.01,195.93 682.15,220.37 665.35,223.59 C539.38,247.7 505.25,235.08 378.35,253.59 C372.98,254.37 373.4124,254.2579 367.8724,255.1579" fill="none" id="scheduleProvider-to-courseProvider" style="stroke:#181818;stroke-width:1;"/><polygon fill="#181818" points="361.95,256.12,371.4749,258.6251,366.8853,255.3182,370.1921,250.7286,361.95,256.12" style="stroke:#181818;stroke-width:1;"/><text fill="#000000" font-family="sans-serif" font-size="13" lengthAdjust="spacing" textLength="165.6167" x="725.55" y="219.6569">Agreguje rozv. l&#237;stky p&#345;es</text></g><!--link scheduleProvider to timeslotRepository--><g class="link" data-entity-1="scheduleProvider" data-entity-2="timeslotRepository" data-source-line="36" data-uid="lnk24" id="link_scheduleProvider_timeslotRepository"><path d="M991.06,177.06 C1018.67,185.53 1049.63,195.75 1077.35,206.59 C1093.82,213.03 1096.97,216.9 1113.35,223.59 C1139.12,234.12 1162.2308,242.5245 1187.6408,251.1845" fill="none" id="scheduleProvider-to-timeslotRepository" style="stroke:#181818;stroke-width:1;"/><polygon fill="#181818" points="1193.32,253.12,1186.0915,246.4305,1188.5873,251.507,1183.5108,254.0028,1193.32,253.12" style="stroke:#181818;stroke-width:1;"/><text fill="#000000" font-family="sans-serif" font-size="13" lengthAdjust="spacing" textLength="85.1919" x="1114.35" y="219.6569">Filtruje podle</text></g><!--link scheduleProvider to scheduleRepository--><g class="link" data-entity-1="scheduleProvider" data-entity-2="scheduleRepository" data-source-line="37" data-uid="lnk25" id="link_scheduleProvider_scheduleRepository"><path d="M908.1,176.99 C906.71,190.57 905.89,208.16 908.35,223.59 C909.93,233.56 911.1293,238.5499 914.3193,247.6199" fill="none" id="scheduleProvider-to-scheduleRepository" style="stroke:#181818;stroke-width:1;"/><polygon fill="#181818" points="916.31,253.28,917.0973,243.4627,914.6511,248.5632,909.5505,246.117,916.31,253.28" style="stroke:#181818;stroke-width:1;"/><text fill="#000000" font-family="sans-serif" font-size="13" lengthAdjust="spacing" textLength="163.103" x="909.35" y="219.6569">Na&#269;&#237;t&#225; z&#225;znamy s histori&#237;</text></g><!--link scheduleNotifications to notifications--><g class="link" data-entity-1="scheduleNotifications" data-entity-2="notifications" data-source-line="41" data-uid="lnk27" id="link_scheduleNotifications_notifications"><path d="M1616.35,300.27 C1616.35,322.06 1616.35,348.88 1616.35,370.62" fill="none" id="scheduleNotifications-to-notifications" style="stroke:#181818;stroke-width:1;"/><polygon fill="#181818" points="1616.35,376.62,1620.35,367.62,1616.35,371.62,1612.35,367.62,1616.35,376.62" style="stroke:#181818;stroke-width:1;"/></g><!--link courseRepository to courseDB--><g class="link" data-entity-1="courseRepository" data-entity-2="courseDB" data-source-line="46" data-uid="lnk31" id="link_courseRepository_courseDB"><path d="M367.35,423.52 C367.35,441.32 367.35,460.05 367.35,477.75" fill="none" id="courseRepository-to-courseDB" style="stroke:#181818;stroke-width:1;"/><polygon fill="#181818" points="367.35,483.75,371.35,474.75,367.35,478.75,363.35,474.75,367.35,483.75" style="stroke:#181818;stroke-width:1;"/></g><!--link scheduleRepository to scheduleDB--><g class="link" data-entity-1="scheduleRepository" data-entity-2="scheduleDB" data-source-line="47" data-uid="lnk32" id="link_scheduleRepository_scheduleDB"><path d="M925.35,300.27 C925.35,322.19 925.35,349.29 925.35,371.03" fill="none" id="scheduleRepository-to-scheduleDB" style="stroke:#181818;stroke-width:1;"/><polygon fill="#181818" points="925.35,377.03,929.35,368.03,925.35,372.03,921.35,368.03,925.35,377.03" style="stroke:#181818;stroke-width:1;"/></g><!--link timeslotRepository to timeslotDB--><g class="link" data-entity-1="timeslotRepository" data-entity-2="timeslotDB" data-source-line="48" data-uid="lnk33" id="link_timeslotRepository_timeslotDB"><path d="M1263.35,300.27 C1263.35,322.19 1263.35,349.29 1263.35,371.03" fill="none" id="timeslotRepository-to-timeslotDB" style="stroke:#181818;stroke-width:1;"/><polygon fill="#181818" points="1263.35,377.03,1267.35,368.03,1263.35,372.03,1259.35,368.03,1263.35,377.03" style="stroke:#181818;stroke-width:1;"/></g><!--SRC=[ZLGzRzim4DtzAuXaJhrdA92Y3JgqQT0YIxUpoDgi958WAG7IV_0FA39vx23q5yIBhF_Lepv2MgOSRubyx_7klNSNoJIJWWb3hdxAbOAAYQPUVk7QoABPuTyaQ_ymcXwUJVllYe0caSoLPhQ2YpMvphY85v5ZkPSgpPDcXoYIAKbC8TKgNpBA3KHycK9rZlOJbba6FH3xp8zInoMs1OObC_179GjEcJh2_SXKiojW1l8L1AmdYAT4jljEYCzM2CKhYDWC_ZlBfEPOL9BhjMAb9V85khbvFscEt8vQvx-HjPjAvARvwruehnOJZAFn7aIY1pXiczeqEuAwLWBIacYowRjkwf76oUfuXi4joJVAT5EZQTXDkmSAHLoIlDtpJcisieo8kLwUOgIWo590mgarkS9X10xZY-jYHfIi2hN9EpLrj64qJoR1clM_XmvEZDYW_IwGNXv9qjJQn1FykVIDAUeVnkLuYJPXbiiJzJPNA5slf0_Iy5yyjaoob_hmV05d3ul0S2bqWFQEAeo3rIkrS26rmRuFMz03gqxak0E6fyp-UzhdgQOsDXEDR6hQ5x2PaQGeqHlS09kCryONKuJFScdyGXo1pkrUuhin-emi5EVECu5hQSlAyvqSQtfhNHXNIZYN2hlXJPq1HQFwvXRJtFkiuOjX7NutAEIr5JWLFluERLcVmBkJesT8mXBTyyIe_d9HUnk2qB13RnshHPJ8dBfW7xRMHPtWALf1bpVXw-n2TYo_RM1IIC702ZGRXFdumNqPEVnlu-JuxUJGENdnry2S_lXO4H3HrnOh_WC0]--></g></svg>